<svg xmlns="http://www.w3.org/2000/svg" style="display: none;"><symbol id="orange" viewBox="-52 0 472 472"><title>orange</title><path d="m368 288c0 101.621094-82.378906 184-184 184s-184-82.378906-184-184 82.378906-184 184-184 184 82.378906 184 184zm0 0" fill="#f98500"/><path d="m313.488281 157.304688c-32 183.0625-152.640625 254.222656-234.617187 281.671874 78.347656 54.378907 185.261718 39.882813 246.296875-33.394531 61.039062-73.28125 55.96875-181.054687-11.679688-248.277343zm0 0" fill="#f27900"/><g fill="#e66000"><path d="m280 200h16v16h-16zm0 0"/><path d="m312 248h16v16h-16zm0 0"/><path d="m232 360h16v16h-16zm0 0"/><path d="m280 368h16v16h-16zm0 0"/><path d="m208 408h16v16h-16zm0 0"/></g><path d="m81.601562 187.527344-11.386718-11.246094c4.078125-4.121094 8.367187-8.019531 12.855468-11.679688l10.105469 12.40625c-4.042969 3.296876-7.90625 6.808594-11.574219 10.519532zm0 0" fill="#ff9419"/><path d="m40.855469 272.871094-15.902344-1.742188c3.328125-30.269531 15.265625-58.945312 34.398437-82.632812l12.464844 10.023437c-17.214844 21.316407-27.960937 47.117188-30.960937 74.351563zm0 0" fill="#ff9419"/><path d="m208.40625 46.65625c-10.253906-6.828125-16.414062-18.335938-16.40625-30.65625h-16c-.019531 17.679688 8.8125 34.199219 23.527344 44l4 2.6875 8.878906-13.3125zm0 0" fill="#5f943a"/><path d="m176 0h16v144h-16zm0 0" fill="#5f943a"/><path d="m199.996094 50.964844c69.066406-15.0625 137.269531 28.714844 152.335937 97.785156-69.070312 15.0625-137.273437-28.714844-152.335937-97.785156zm0 0" fill="#5f943a"/><path d="m329.519531 99.199219c-33.542969 11.199219-76.191406 6.082031-108.105469-.4375 29.828126 41.199219 81.222657 60.832031 130.921876 50.007812-3.929688-17.980469-11.714844-34.890625-22.816407-49.570312zm0 0" fill="#568741"/><path d="m184 151.289062c-10.125-.003906-20.023438-3.007812-28.441406-8.632812l8.882812-13.3125c11.839844 7.914062 27.277344 7.914062 39.117188 0l8.882812 13.3125c-8.417968 5.625-18.316406 8.628906-28.441406 8.632812zm0 0" fill="#e66000"/></symbol><symbol id="apple" viewBox="0 0 513.18 513.18"><title>apple</title><g><path d="m271.644 114.871c19.309-15.634 56.655-35.148 108.504-13.595 78.276 32.538 131.463 152.563 74.261 280.212-57.201 127.648-135.477 128.951-158.559 121.777-12.086-3.757-22.265-7.747-29.22-10.697-6.192-2.793-13.263-2.86-19.512-.197-6.963 2.968-17.326 7.053-29.683 10.894-23.081 7.175-101.357 5.872-158.559-121.777-57.199-127.649-4.012-247.674 74.264-280.212 51.85-21.553 89.195-2.038 108.504 13.596l15 13.634z" fill="#f47c7c"/><g><path d="m157.166 381.488c-55.727-124.359-6.678-241.468 68.266-277.509-21.112-11.561-52.41-19.281-92.291-2.703-78.277 32.538-131.464 152.563-74.263 280.212 57.202 127.648 135.477 128.951 158.559 121.777 12.357-3.841 22.72-7.927 29.683-10.894.203-.086.409-.162.613-.243-29.243-15.689-62.45-47.895-90.567-110.64z" fill="#ee6161"/></g><path d="m311.524 64.212h-42.089v-26.855c0-16.486 13.365-29.851 29.851-29.851h36.601c3.031 0 5.488 2.457 5.488 5.488v21.368c0 16.486-13.365 29.85-29.851 29.85z" fill="#22b27f"/><g><path d="m271.644 159.967v-86.159c0-15.389-3.64-30.799-10.525-44.564l-9.198-18.383c-1.5-2.998-5.145-4.212-8.143-2.712l-15.975 7.993c-2.998 1.5-4.212 5.146-2.712 8.143l9.197 18.382c4.812 9.619 7.355 20.388 7.355 31.142v86.159h30.001z" fill="#fdd79b"/></g></g><g><path d="m483.9 242.587c-5.451-41.671-22.281-80.358-47.391-108.935-2.733-3.111-7.474-3.419-10.584-.684-3.112 2.733-3.418 7.473-.684 10.584 23.166 26.366 38.716 62.228 43.785 100.979 5.696 43.548-1.725 89.845-21.461 133.888-23.943 53.43-53.782 89.719-88.689 107.859-33.609 17.466-58.117 10.657-60.799 9.823-12.021-3.736-22.092-7.717-28.446-10.409-8.051-3.605-17.323-3.688-25.452-.223-6.431 2.741-16.676 6.811-28.968 10.632-9.896 3.075-29.15 3.551-50.854-5.237-28.954-11.723-55.011-36.009-77.446-72.184-2.185-3.521-6.808-4.602-10.327-2.421-3.52 2.184-4.604 6.807-2.421 10.327 24.148 38.935 52.6 65.238 84.565 78.182 25.339 10.259 48.092 9.648 60.935 5.657 12.895-4.009 23.646-8.28 30.396-11.157 4.312-1.837 9.226-1.788 13.486.134.052.023.104.047.157.069 6.664 2.825 17.264 7.02 29.922 10.954 5.447 1.693 12.32 2.754 20.226 2.753 14.622 0 32.773-3.628 51.942-13.591 37.983-19.738 70.101-58.442 95.46-115.034 20.874-46.574 28.705-95.666 22.648-141.966z"/><path d="m65.722 378.42c-27.88-62.217-30.981-127.357-8.733-183.421 16.293-41.057 45.099-72.693 79.03-86.798 44.614-18.547 77.597-5.214 98.125 10.331v34.048c-6.349-1.437-12.69-3.468-19.041-6.106-3.823-1.593-8.214.223-9.803 4.049-1.59 3.825.224 8.214 4.049 9.803 15.663 6.507 31.583 9.759 47.656 9.759 16.038 0 32.229-3.24 48.451-9.72 3.847-1.536 5.719-5.9 4.183-9.747-1.535-3.847-5.901-5.717-9.747-4.183-6.989 2.792-13.897 4.906-20.748 6.359v-34.262c20.528-15.544 53.513-28.874 98.125-10.33 8.847 3.678 17.486 8.624 25.678 14.702 1.343.996 2.909 1.477 4.463 1.477 2.293 0 4.558-1.048 6.029-3.031 2.468-3.326 1.772-8.023-1.555-10.492-9.173-6.806-18.882-12.359-28.857-16.507-46.316-19.252-81.996-7.408-103.883 6.047v-26.59c0-.699-.017-1.397-.031-2.096h34.62c20.596 0 37.352-16.756 37.352-37.352v-21.366c0-7.161-5.826-12.987-12.988-12.987h-36.601c-15.781 0-29.297 9.842-34.759 23.705l-8.108-16.206c-1.622-3.242-4.408-5.658-7.848-6.803-3.438-1.146-7.118-.883-10.358.739l-15.975 7.992c-3.242 1.622-5.658 4.408-6.803 7.848-1.146 3.438-.883 7.117.739 10.358l9.196 18.382c4.294 8.584 6.563 18.192 6.563 27.786v26.589c-21.886-13.456-57.564-25.301-103.883-6.047-37.647 15.65-69.436 50.318-87.213 95.116-23.755 59.86-20.563 129.144 8.987 195.088 2 4.462 4.066 8.851 6.32 13.417 1.307 2.648 3.966 4.184 6.731 4.184 1.114 0 2.246-.25 3.313-.776 3.715-1.833 5.24-6.33 3.407-10.044-2.17-4.399-4.16-8.624-6.083-12.915zm213.422-341.063c0-12.324 10.027-22.351 22.352-22.351h34.589v19.354c0 12.324-10.027 22.352-22.352 22.352h-34.589zm-46.705-15.149 13.415-6.712 8.557 17.103c6.368 12.729 9.733 26.979 9.733 41.209v81.104c-5.02.349-10.017.337-15-.048v-81.056c0-11.912-2.817-23.841-8.148-34.497z"/></g></symbol><symbol id="cabbage" viewBox="0 0 512 512"><title>cabbage</title><path style="fill:#3BBC56;" d="M461.428,123.114c-3.612-1.553-6.062-4.945-6.395-8.851c-2.736-32.166-28.904-58.099-61.785-59.711 c-5.165-0.252-9.663-3.772-11.462-8.967c-17.192-49.66-84.876-53.876-109.324-9.158l-0.588,1.075l1.162,0.39 c23.494,7.872,42.404,29.698,44.453,57.63c43.187,13.007,78.328,38.239,104.013,71.66l1.268,1.65l0.537-2.01 c3.687-13.81,13.975-37.372,41.455-40.019l3.504-0.383C464.073,124.344,462.901,123.747,461.428,123.114z"/><g> <path style="fill:#30AA44;" d="M366.505,21.607c-26.851-25.441-74.4-21.109-94.043,14.82l-0.588,1.075l1.162,0.39 c7.222,2.42,14.008,6.163,20.007,10.992C308.329,21.058,340.383,12.248,366.505,21.607z"/> <polygon style="fill:#30AA44;" points="64.042,310.427 64.109,310.437 64.39,308.405 "/> <path style="fill:#30AA44;" d="M59.104,309.866l0.037,0.001c0.047-1.23,0.04-0.791,0.036-2.052L59.104,309.866z"/> <path style="fill:#30AA44;" d="M256.321,32.615c-19.207-1.04-37.954,6.173-51.443,19.811c-4.367,4.413-10.669,5.802-16.055,3.541 c-33.988-14.279-72.895-0.685-91.159,30.383c-2.249,3.825-6.425,6.083-10.854,5.908c-68.909-2.81-111.226,75.055-71.45,131.278 c4.938,6.978,5.89,16.026,2.485,23.614c-10.12,22.563-5.283,50.723,16.577,68.74c7.541-4.023,13.337-5.556,20.539-6.058 C44.92,187.077,141.363,87.044,259.005,87.044c21.883,0,41.282,3.296,60.588,9.111C316.845,58.869,288.12,34.349,256.321,32.615z"/> </g><path style="fill:#239B31;" d="M38.363,245.97c3.405-7.718,2.453-16.922-2.485-24.02C2.072,173.344,27.572,108.848,78.292,92.335 C14.502,95.95-22.749,169.67,15.36,223.536c4.938,6.978,5.89,16.026,2.485,23.614c-10.12,22.563-5.283,50.723,16.577,68.74 c5.468-2.917,10.019-4.521,14.853-5.375C32.31,292.278,29.186,266.782,38.363,245.97z"/><path style="fill:#83CC8E;" d="M423.126,165.928c-18.919-24.617-43.53-44.991-71.169-58.92 c-28.988-14.608-60.261-22.015-92.952-22.015c-118.301,0-216.271,100.523-206.09,224.983l1.011-0.071 c27.935-1.955,47.523,25.217,47.717,25.492l0.279,0.394l0.48,0.037c23.447,1.79,42.011,15.126,55.177,39.637 c9.871,18.375,12.813,36.476,12.842,36.656l0.128,0.811l0.82,0.053c40.35,2.59,70.16,43.32,87.067,80.272 c14.957-52.532,49.024-96.755,102.713-105.703l0.982-0.164l-0.134-0.987c-0.113-0.832-10.786-83.567,36.383-113.358l0.695-0.439 l-0.278-0.774c-0.239-0.666-23.339-66.927,22.465-96.638l0.404-0.262l0.056-0.478c0.004-0.031,0.374-3.114,1.582-7.635l0.13-0.488 L423.126,165.928z"/><path style="fill:#78C181;" d="M277.625,85.812c-6.151-0.542-12.359-0.819-18.62-0.819c-118.301,0-216.271,100.523-206.09,224.983 l1.011-0.071c7.611-0.533,14.595,1.105,20.743,3.764C67.705,191.022,161.738,92.062,277.625,85.812z"/><path style="fill:#3BBC56;" d="M239.106,455.367c-17.978-24.795-38.744-39.723-60.448-43.568c-3.764-0.667-6.82-3.409-7.748-7.117 c-8.331-33.258-28.363-64.513-62.485-70.193c-3.398-0.566-6.514-2.255-8.802-4.83c-20.081-22.597-47.032-29.987-73.169-11.143 c-43.526,31.382-6.115,70.788,34.062,62.705c11.73-2.366,18.447,11.25,27.75,30.086c10.258,20.771,23.025,46.622,48.67,65.552 c22.242,16.419,50.025,24.548,84.276,24.548c14.169,0,27.529-1.337,41.355-3.427C258.007,486.036,249.14,469.204,239.106,455.367z"/><path style="fill:#30AA44;" d="M241.729,500.383c-34.251,0-62.034-8.129-84.276-24.548c-25.644-18.93-38.411-44.781-48.67-65.552 c-9.303-18.837-16.02-32.453-27.75-30.086c-40.177,8.083-77.588-31.324-34.062-62.705c6.033-4.35,12.109-7.285,18.134-8.975 c-12.455-2.249-25.654,0.63-38.652,10.001c-43.526,31.382-6.115,70.788,34.062,62.705c11.73-2.366,18.447,11.25,27.75,30.086 c10.258,20.771,23.025,46.622,48.67,65.552c22.242,16.419,50.025,24.548,84.276,24.548c7.489,0,14.751-0.382,21.976-1.043 C242.7,500.368,242.218,500.383,241.729,500.383z"/><path style="fill:#9BE0A3;" d="M361.648,192.57c-1.989-3.755-6.646-5.185-10.401-3.197c-44.508,23.58-66.171,58.794-76.507,84.183 c-2.714,6.668-4.805,13-6.423,18.789c-7.086-19.279-16.098-37.793-26.97-55.379c1.635-7.939,11.974-51.471,46.896-80.67 c3.26-2.726,3.693-7.578,0.967-10.838c-2.727-3.259-7.578-3.692-10.838-0.967c-28.872,24.141-42.508,56.328-48.426,75.318 c-31.595-44.292-64.364-65.884-65.866-66.859c-3.562-2.313-8.329-1.301-10.643,2.263c-2.314,3.564-1.3,8.329,2.263,10.644 c0.237,0.154,15.382,10.134,34.639,30.216c-29.741-3.357-52.832,4.243-54.023,4.646c-4.026,1.36-6.187,5.726-4.827,9.751 c1.084,3.21,4.079,5.234,7.288,5.234c0.817,0,1.647-0.131,2.463-0.407c0.312-0.105,31.166-10.257,65.75-0.292 c6.216,7.711,12.536,16.335,18.667,25.893c5.629,8.775,11.3,18.688,16.652,29.729c-51.983-24.221-121.074,2.609-124.404,3.93 c-3.95,1.568-5.88,6.041-4.312,9.99c1.568,3.95,6.04,5.879,9.99,4.312c0.845-0.335,84.641-32.922,129.524,7.028 c6.972,18.702,12.677,39.866,15.946,63.469c-15.554-8.312-45.014-20.61-78.997-17.554c-4.232,0.38-7.355,4.12-6.974,8.352 s4.121,7.359,8.352,6.974c40.119-3.601,74.357,17.801,79.669,21.313c2.207,28.769,0.747,60.787-6.205,96.03 c-0.822,4.169,1.891,8.216,6.06,9.038c4.168,0.822,8.215-1.891,9.038-6.06c9.915-50.264,10.031-98.587,0.348-143.625 c-0.661-3.074-1.384-6.128-2.136-9.172c0.01-0.129,0.026-0.256,0.029-0.386c0.02-0.798,2.881-80.325,80.218-121.297 C362.206,200.982,363.637,196.325,361.648,192.57z"/><path style="fill:#3BBC56;" d="M493.94,284.526c-1.403-34.961-8.817-72.074-15.314-92.175l-0.764,0.017 c-34.816,0.759-39.059,61.057-39.224,63.641c-2.448,52.03-73.128,126.93-77.737,131.585c-56.244,9.65-93.155,58.44-105.306,108.769 c7.721,4.001,26.521,10.2,50.35,10.2c1.931,0,3.912-0.04,5.931-0.124c31.03-1.293,78.971-13.648,131.149-65.163 C484.244,400.583,496.243,341.941,493.94,284.526z"/><g> <path style="fill:#30AA44;" d="M293.323,461.402c13.733-31.406,36.232-58.973,66.268-73.552 c-55.501,10.182-91.94,58.579-103.996,108.514c7.721,4.001,26.521,10.2,50.35,10.2c1.931,0,3.912-0.04,5.931-0.124 c2.44-0.102,4.997-0.281,7.64-0.534c-0.176-0.018-0.351-0.036-0.527-0.055C297.616,503.595,284.712,481.096,293.323,461.402z"/> <path style="fill:#30AA44;" d="M511.889,151.947c-1.29-14.578-13.638-24.39-33.877-26.92 c-31.093-3.885-50.907,15.051-57.401,44.049c-0.652,2.91-2.271,5.523-4.638,7.338c-16.811,12.886-25.558,32.92-25.363,58.284 c0.109,14.159,2.998,26.654,4.812,33.131c0.653,2.334-0.223,4.798-2.165,6.248c-17.703,13.211-29.068,36.106-32.976,66.587 c-3.157,24.628,0.622,46.929,0.622,46.929l0,0l0,0l0,0l0,0c48.858-17.941,81.297-43.112,96.679-76.167 c13.065-28.076,11.905-56.051,10.973-78.529c-0.845-20.368-1.455-35.084,9.635-38.525 C498.631,188.029,513.434,169.394,511.889,151.947z"/> </g><path style="fill:#239B31;" d="M381.587,340.665c3.908-30.481,15.274-53.376,32.976-66.587c1.942-1.449,2.819-3.914,2.165-6.247 c-1.813-6.477-4.703-18.973-4.812-33.132c-0.195-25.364,8.552-45.399,25.363-58.284c2.367-1.814,3.986-4.427,4.638-7.338 c5.126-22.891,18.559-39.5,39.281-43.575c-1.041-0.177-2.101-0.339-3.188-0.474c-31.092-3.885-50.907,15.051-57.401,44.05 c-0.652,2.91-2.271,5.523-4.638,7.338c-16.811,12.886-25.558,32.92-25.363,58.284c0.109,14.159,2.999,26.654,4.812,33.132 c0.653,2.333-0.223,4.798-2.165,6.247c-17.703,13.211-29.068,36.106-32.976,66.587c-3.157,24.628,0.622,46.929,0.622,46.929 c7.114-2.612,13.868-5.382,20.284-8.303C380.354,370.599,379.61,356.09,381.587,340.665z"/></symbol><symbol id="potato" viewBox="0 -32 511.99993 511"><title>potato</title><path d="m246.316406.503906c-54.417968-.402344-101.664062 30.496094-124.800781 75.761719-19.933594 39.011719-43.796875 75.929687-72.96875 108.613281-24.425781 27.363282-47.527344 67.886719-48.4960938 123.734375-.0351562 1.210938-.0507812 2.421875-.0507812 3.636719 0 75.070312 60.859375 135.929688 135.929688 135.929688.144531 0 .285156-.003907.429687-.003907 1.027344-.003906 2.054687-.015625 3.078125-.039062 135.46875-1.878907 244.710938-112.261719 244.710938-248.175781v-58.832032c0-76.582031-61.253907-140.058594-137.832032-140.625zm0 0" fill="#f0a65f"/><path d="m384.148438 199.960938v-58.832032c0-46.863281-22.941407-88.816406-58.292969-114.449218v-.003907c16.984375 23.386719 27 52.199219 27 83.15625v14.285157c0 25.1875-18.144531 46.675781-42.953125 51.011718-12.953125 2.265625-25.652344 3.742188-38.234375 4.457032-40.820313 2.316406-77.90625 18.507812-107.257813 46.828124-.785156.746094-1.5625 1.503907-2.332031 2.273438-23.757813 23.753906-36.839844 55.339844-36.839844 88.9375 0 19.675781 5.597657 37.507812 12.597657 52.113281 10.402343 21.710938-5.027344 47.03125-29.101563 47.101563-.195313 0-.394531 0-.589844 0-36.859375 0-60.398437-9.386719-82.699219-25.398438 24.667969 34.355469 64.960938 56.738282 110.484376 56.738282 135.253906-.660157 248.21875-112.472657 248.21875-248.21875zm0 0" fill="#e28540"/><path d="m312.195312 202.910156c-3.207031 0-6.207031-1.992187-7.347656-5.175781-.277344-.75-6.101562-15.949219-24.363281-22.320313-4.070313-1.421874-6.214844-5.871093-4.796875-9.941406 1.417969-4.066406 5.871094-6.222656 9.941406-4.796875 25.625 8.9375 33.601563 30.90625 33.929688 31.839844 1.429687 4.066406-.710938 8.519531-4.777344 9.949219-.855469.300781-1.726562.445312-2.585938.445312zm0 0" fill="#e28540"/><path d="m481.511719 207.679688c-29.496094-29.9375-72.164063-38.859376-109.515625-26.777344-32.183594 10.414062-65.371094 17.546875-99.144532 19.460937-28.28125 1.609375-63.023437 11.117188-94.042968 41.082031-.679688.644532-1.347656 1.296876-2.011719 1.960938-40.992187 40.992188-40.992187 107.449219 0 148.441406.078125.078125.15625.152344.234375.230469.566406.5625 1.128906 1.117187 1.703125 1.660156 74.996094 72.941407 194.914063 72.320313 269.125-1.890625l32.125-32.125c41.816406-41.816406 43.027344-109.917968 1.527344-152.042968zm0 0" fill="#f0a65f"/><g fill="#e28540"><path d="m481.511719 207.679688c-4.5-4.566407-9.308594-8.636719-14.351563-12.222657 29.882813 42.132813 25.199219 101.21875-12.511718 138.929688l-32.125 32.125c-69.949219 69.949219-180.496094 74.507812-255.765626 13.722656 3.015626 4.710937 11.402344 12.960937 11.976563 13.503906 74.996094 72.941407 194.914063 72.320313 269.125-1.890625l32.125-32.125c41.816406-41.816406 43.027344-109.917968 1.527344-152.042968zm0 0"/><path d="m153.53125 43.667969c.167969-.011719 16.941406-1.128907 33.238281 4.710937.871094.3125 1.757813.457032 2.632813.457032 3.203125 0 6.207031-1.984376 7.347656-5.171876 1.453125-4.058593-.65625-8.527343-4.714844-9.980468-11.089844-3.976563-22.199218-5.25-29.824218-5.601563-5.324219 3.980469-10.351563 8.324219-15.046876 13.007813 1.558594 1.738281 3.863282 2.769531 6.367188 2.578125zm0 0"/><path d="m199.8125 173.769531c-2.46875 0-4.894531-1.167969-6.414062-3.34375-10.925782-15.695312-35.074219-16.429687-35.316407-16.429687-4.308593-.054688-7.761719-3.589844-7.707031-7.902344.050781-4.277344 3.535156-7.707031 7.800781-7.707031h.097657c1.3125.015625 32.292968.652343 47.9375 23.117187 2.460937 3.539063 1.589843 8.402344-1.945313 10.863282-1.359375.949218-2.914063 1.402343-4.453125 1.402343zm0 0"/><path d="m306.984375 100.925781c-3.515625 0-6.710937-2.398437-7.578125-5.96875-4.28125-17.667969-24.363281-22.113281-25.214844-22.296875-4.207031-.886718-6.914062-5.011718-6.042968-9.222656.871093-4.207031 4.964843-6.917969 9.175781-6.066406 1.246093.25 30.609375 6.503906 37.253906 33.90625 1.015625 4.191406-1.558594 8.410156-5.746094 9.425781-.617187.148437-1.238281.222656-1.847656.222656zm0 0"/><path d="m105.101562 265.347656c-3.445312 0-6.59375-2.292968-7.53125-5.777344-5.804687-21.5625-33.761718-25.46875-34.042968-25.507812-4.261719-.558594-7.285156-4.464844-6.738282-8.730469.550782-4.265625 4.4375-7.285156 8.699219-6.753906 1.574219.195313 38.605469 5.179687 47.15625 36.933594 1.117188 4.164062-1.347656 8.445312-5.507812 9.566406-.683594.183594-1.363281.269531-2.035157.269531zm0 0"/><path d="m398.496094 175.90625c-7.078125.4375-14.121094 1.570312-21.019532 3.402344.585938 2.332031 2.230469 4.363281 4.628907 5.335937.246093.101563 24.671875 10.246094 27.449219 32.25.5 3.945313 3.859374 6.828125 7.734374 6.828125.328126 0 .65625-.019531.988282-.0625 4.277344-.542968 7.304687-4.445312 6.765625-8.722656-2.507813-19.867188-16.480469-32.425781-26.546875-39.03125zm0 0"/><path d="m342.363281 279.914062c-4.015625 0-7.429687-3.082031-7.765625-7.15625-1.664062-19.96875-25.355468-30.878906-25.589844-30.988281-3.921874-1.769531-5.683593-6.382812-3.925781-10.308593 1.757813-3.925782 6.351563-5.695313 10.285157-3.945313 1.320312.585937 32.347656 14.699219 34.785156 43.945313.359375 4.296874-2.832032 8.070312-7.128906 8.425781-.222657.019531-.441407.027343-.660157.027343zm0 0"/><path d="m423.535156 302.8125c-3.910156 0-7.285156-2.933594-7.746094-6.914062-1.570312-13.636719-14.601562-21.035157-14.730468-21.109376-3.753906-2.085937-5.132813-6.824218-3.066406-10.585937 2.066406-3.761719 6.761718-5.164063 10.535156-3.117187.828125.445312 20.253906 11.203124 22.769531 33.023437.492187 4.28125-2.578125 8.152344-6.859375 8.648437-.300781.035157-.605469.054688-.902344.054688zm0 0"/><path d="m201.878906 276.792969c-4.132812 0-7.578125-3.242188-7.789062-7.414063-.726563-14.566406-18.632813-18.28125-18.816406-18.320312-4.226563-.835938-6.972657-4.945313-6.136719-9.171875.839843-4.230469 4.949219-6.976563 9.175781-6.136719 10.382812 2.058594 30.304688 11.574219 31.367188 32.847656.214843 4.304688-3.101563 7.972656-7.40625 8.183594-.128907.007812-.261719.011719-.394532.011719zm0 0"/><path d="m336.324219 396.84375c-1.226563-4.132812-5.570313-6.484375-9.703125-5.253906-4.132813 1.226562-6.484375 5.574218-5.257813 9.703125 6.808594 22.890625-6.324219 39.992187-6.945312 40.777343-1.378907 1.730469-1.898438 3.867188-1.628907 5.902344 5.660157-.015625 11.320313-.28125 16.960938-.792968 5.003906-8.347657 13.484375-27.113282 6.574219-50.335938zm0 0"/></g></symbol><symbol id="shopping-cart" viewBox="0 -31 512.00033 512"><title>shopping-cart</title><path d="m166 300.003906h271.003906c6.710938 0 12.597656-4.4375 14.414063-10.882812l60.003906-210.003906c1.289063-4.527344.40625-9.390626-2.433594-13.152344-2.84375-3.75-7.265625-5.964844-11.984375-5.964844h-365.632812l-10.722656-48.25c-1.523438-6.871094-7.617188-11.75-14.648438-11.75h-91c-8.289062 0-15 6.710938-15 15 0 8.292969 6.710938 15 15 15h78.960938l54.167968 243.75c-15.9375 6.929688-27.128906 22.792969-27.128906 41.253906 0 24.8125 20.1875 45 45 45h271.003906c8.292969 0 15-6.707031 15-15 0-8.289062-6.707031-15-15-15h-271.003906c-8.261719 0-15-6.722656-15-15s6.738281-15 15-15zm0 0"/><path d="m151 405.003906c0 24.816406 20.1875 45 45.003906 45 24.8125 0 45-20.183594 45-45 0-24.8125-20.1875-45-45-45-24.816406 0-45.003906 20.1875-45.003906 45zm0 0"/><path d="m362.003906 405.003906c0 24.816406 20.1875 45 45 45 24.816406 0 45-20.183594 45-45 0-24.8125-20.183594-45-45-45-24.8125 0-45 20.1875-45 45zm0 0"/></symbol><symbol id="heart" viewBox="0 -28 512.00002 512"><title>heart</title><path d="m471.382812 44.578125c-26.503906-28.746094-62.871093-44.578125-102.410156-44.578125-29.554687 0-56.621094 9.34375-80.449218 27.769531-12.023438 9.300781-22.917969 20.679688-32.523438 33.960938-9.601562-13.277344-20.5-24.660157-32.527344-33.960938-23.824218-18.425781-50.890625-27.769531-80.445312-27.769531-39.539063 0-75.910156 15.832031-102.414063 44.578125-26.1875 28.410156-40.613281 67.222656-40.613281 109.292969 0 43.300781 16.136719 82.9375 50.78125 124.742187 30.992188 37.394531 75.535156 75.355469 127.117188 119.3125 17.613281 15.011719 37.578124 32.027344 58.308593 50.152344 5.476563 4.796875 12.503907 7.4375 19.792969 7.4375 7.285156 0 14.316406-2.640625 19.785156-7.429687 20.730469-18.128907 40.707032-35.152344 58.328125-50.171876 51.574219-43.949218 96.117188-81.90625 127.109375-119.304687 34.644532-41.800781 50.777344-81.4375 50.777344-124.742187 0-42.066407-14.425781-80.878907-40.617188-109.289063zm0 0"/></symbol><symbol id="share" viewBox="-21 0 512 512"><title>share</title><path d="m453.332031 85.332031c0 38.292969-31.039062 69.335938-69.332031 69.335938s-69.332031-31.042969-69.332031-69.335938c0-38.289062 31.039062-69.332031 69.332031-69.332031s69.332031 31.042969 69.332031 69.332031zm0 0"/><path d="m384 170.667969c-47.0625 0-85.332031-38.273438-85.332031-85.335938 0-47.058593 38.269531-85.332031 85.332031-85.332031s85.332031 38.273438 85.332031 85.332031c0 47.0625-38.269531 85.335938-85.332031 85.335938zm0-138.667969c-29.417969 0-53.332031 23.9375-53.332031 53.332031 0 29.398438 23.914062 53.335938 53.332031 53.335938s53.332031-23.9375 53.332031-53.335938c0-29.394531-23.914062-53.332031-53.332031-53.332031zm0 0"/><path d="m453.332031 426.667969c0 38.289062-31.039062 69.332031-69.332031 69.332031s-69.332031-31.042969-69.332031-69.332031c0-38.292969 31.039062-69.335938 69.332031-69.335938s69.332031 31.042969 69.332031 69.335938zm0 0"/><path d="m384 512c-47.0625 0-85.332031-38.273438-85.332031-85.332031 0-47.0625 38.269531-85.335938 85.332031-85.335938s85.332031 38.273438 85.332031 85.335938c0 47.058593-38.269531 85.332031-85.332031 85.332031zm0-138.667969c-29.417969 0-53.332031 23.9375-53.332031 53.335938 0 29.394531 23.914062 53.332031 53.332031 53.332031s53.332031-23.9375 53.332031-53.332031c0-29.398438-23.914062-53.335938-53.332031-53.335938zm0 0"/><path d="m154.667969 256c0 38.292969-31.042969 69.332031-69.335938 69.332031-38.289062 0-69.332031-31.039062-69.332031-69.332031s31.042969-69.332031 69.332031-69.332031c38.292969 0 69.335938 31.039062 69.335938 69.332031zm0 0"/><path d="m85.332031 341.332031c-47.058593 0-85.332031-38.269531-85.332031-85.332031s38.273438-85.332031 85.332031-85.332031c47.0625 0 85.335938 38.269531 85.335938 85.332031s-38.273438 85.332031-85.335938 85.332031zm0-138.664062c-29.417969 0-53.332031 23.933593-53.332031 53.332031s23.914062 53.332031 53.332031 53.332031c29.421875 0 53.335938-23.933593 53.335938-53.332031s-23.914063-53.332031-53.335938-53.332031zm0 0"/><path d="m135.703125 245.761719c-7.425781 0-14.636719-3.863281-18.5625-10.773438-5.824219-10.21875-2.238281-23.253906 7.980469-29.101562l197.949218-112.851563c10.21875-5.867187 23.253907-2.28125 29.101563 7.976563 5.824219 10.21875 2.238281 23.253906-7.980469 29.101562l-197.953125 112.851563c-3.328125 1.898437-6.953125 2.796875-10.535156 2.796875zm0 0"/><path d="m333.632812 421.761719c-3.585937 0-7.210937-.898438-10.539062-2.796875l-197.953125-112.851563c-10.21875-5.824219-13.800781-18.859375-7.976563-29.101562 5.800782-10.238281 18.855469-13.84375 29.097657-7.976563l197.953125 112.851563c10.21875 5.824219 13.800781 18.859375 7.976562 29.101562-3.945312 6.910157-11.15625 10.773438-18.558594 10.773438zm0 0"/></symbol><symbol id="left-quote" viewBox="0 0 95.333 95.332"><title>left-quote</title><path d="M30.512,43.939c-2.348-0.676-4.696-1.019-6.98-1.019c-3.527,0-6.47,0.806-8.752,1.793 c2.2-8.054,7.485-21.951,18.013-23.516c0.975-0.145,1.774-0.85,2.04-1.799l2.301-8.23c0.194-0.696,0.079-1.441-0.318-2.045 s-1.035-1.007-1.75-1.105c-0.777-0.106-1.569-0.16-2.354-0.16c-12.637,0-25.152,13.19-30.433,32.076 c-3.1,11.08-4.009,27.738,3.627,38.223c4.273,5.867,10.507,9,18.529,9.313c0.033,0.001,0.065,0.002,0.098,0.002 c9.898,0,18.675-6.666,21.345-16.209c1.595-5.705,0.874-11.688-2.032-16.851C40.971,49.307,36.236,45.586,30.512,43.939z"/><path d="M92.471,54.413c-2.875-5.106-7.61-8.827-13.334-10.474c-2.348-0.676-4.696-1.019-6.979-1.019 c-3.527,0-6.471,0.806-8.753,1.793c2.2-8.054,7.485-21.951,18.014-23.516c0.975-0.145,1.773-0.85,2.04-1.799l2.301-8.23 c0.194-0.696,0.079-1.441-0.318-2.045c-0.396-0.604-1.034-1.007-1.75-1.105c-0.776-0.106-1.568-0.16-2.354-0.16 c-12.637,0-25.152,13.19-30.434,32.076c-3.099,11.08-4.008,27.738,3.629,38.225c4.272,5.866,10.507,9,18.528,9.312 c0.033,0.001,0.065,0.002,0.099,0.002c9.897,0,18.675-6.666,21.345-16.209C96.098,65.559,95.376,59.575,92.471,54.413z"/></symbol><symbol id="facebook" viewBox="0 0 24 24"><title>facebook</title><path d="m15.997 3.985h2.191v-3.816c-.378-.052-1.678-.169-3.192-.169-3.159 0-5.323 1.987-5.323 5.639v3.361h-3.486v4.266h3.486v10.734h4.274v-10.733h3.345l.531-4.266h-3.877v-2.939c.001-1.233.333-2.077 2.051-2.077z"/></symbol><symbol id="linkedin" viewBox="0 0 24 24"><title>linkedin</title><path d="m23.994 24v-.001h.006v-8.802c0-4.306-.927-7.623-5.961-7.623-2.42 0-4.044 1.328-4.707 2.587h-.07v-2.185h-4.773v16.023h4.97v-7.934c0-2.089.396-4.109 2.983-4.109 2.549 0 2.587 2.384 2.587 4.243v7.801z"/><path d="m.396 7.977h4.976v16.023h-4.976z"/><path d="m2.882 0c-1.591 0-2.882 1.291-2.882 2.882s1.291 2.909 2.882 2.909 2.882-1.318 2.882-2.909c-.001-1.591-1.292-2.882-2.882-2.882z"/></symbol><symbol id="twitter" viewBox="0 0 512 512"><title>twitter</title><path d="M512,97.248c-19.04,8.352-39.328,13.888-60.48,16.576c21.76-12.992,38.368-33.408,46.176-58.016 c-20.288,12.096-42.688,20.64-66.56,25.408C411.872,60.704,384.416,48,354.464,48c-58.112,0-104.896,47.168-104.896,104.992 c0,8.32,0.704,16.32,2.432,23.936c-87.264-4.256-164.48-46.08-216.352-109.792c-9.056,15.712-14.368,33.696-14.368,53.056 c0,36.352,18.72,68.576,46.624,87.232c-16.864-0.32-33.408-5.216-47.424-12.928c0,0.32,0,0.736,0,1.152 c0,51.008,36.384,93.376,84.096,103.136c-8.544,2.336-17.856,3.456-27.52,3.456c-6.72,0-13.504-0.384-19.872-1.792 c13.6,41.568,52.192,72.128,98.08,73.12c-35.712,27.936-81.056,44.768-130.144,44.768c-8.608,0-16.864-0.384-25.12-1.44 C46.496,446.88,101.6,464,161.024,464c193.152,0,298.752-160,298.752-298.688c0-4.64-0.16-9.12-0.384-13.568 C480.224,136.96,497.728,118.496,512,97.248z"/></symbol><symbol id="google-plus" viewBox="0 0 512 512"><title>google-plus</title><g> <g> <polygon points="448,224 448,160 416,160 416,224 352,224 352,256 416,256 416,320 448,320 448,256 512,256 512,224 "/> </g> </g><g> <g> <path d="M160,224v64h90.528c-13.216,37.248-48.8,64-90.528,64c-52.928,0-96-43.072-96-96c0-52.928,43.072-96,96-96 c22.944,0,45.024,8.224,62.176,23.168l42.048-48.256C235.424,109.824,198.432,96,160,96C71.776,96,0,167.776,0,256 s71.776,160,160,160s160-71.776,160-160v-32H160z"/> </g> </g></symbol></svg>